<?xml version="1.0" encoding="UTF-8" standalone="no"?>
<svg
   xmlns:dc="http://purl.org/dc/elements/1.1/"
   xmlns:cc="http://creativecommons.org/ns#"
   xmlns:rdf="http://www.w3.org/1999/02/22-rdf-syntax-ns#"
   xmlns:svg="http://www.w3.org/2000/svg"
   xmlns="http://www.w3.org/2000/svg"
   xmlns:sodipodi="http://sodipodi.sourceforge.net/DTD/sodipodi-0.dtd"
   xmlns:inkscape="http://www.inkscape.org/namespaces/inkscape"
   xml:space="preserve"
   enable-background="new 0 0 110 40"
   viewBox="0 0 59 25.511511"
   height="25.511511"
   width="59"
   y="0px"
   x="0px"
   id="Livetype"
   version="1.1"
   inkscape:version="0.91 r13725"
   sodipodi:docname="itunes.svg"><sodipodi:namedview
     pagecolor="#ffffff"
     bordercolor="#666666"
     borderopacity="1"
     objecttolerance="10"
     gridtolerance="10"
     guidetolerance="10"
     inkscape:pageopacity="0"
     inkscape:pageshadow="2"
     inkscape:window-width="1920"
     inkscape:window-height="1056"
     id="namedview17"
     showgrid="false"
     fit-margin-top="0"
     fit-margin-left="0"
     fit-margin-right="0"
     fit-margin-bottom="0"
     inkscape:zoom="5.5446292"
     inkscape:cx="-1.1883574"
     inkscape:cy="-0.52220588"
     inkscape:window-x="0"
     inkscape:window-y="24"
     inkscape:window-maximized="1"
     inkscape:current-layer="g3" /><metadata
     id="metadata51"><rdf:RDF><cc:Work
         rdf:about=""><dc:format>image/svg+xml</dc:format><dc:type
           rdf:resource="http://purl.org/dc/dcmitype/StillImage" /><dc:title></dc:title></cc:Work></rdf:RDF></metadata><defs
     id="defs49" /><g
     transform="translate(-12.791904,-6.2170055)"
     id="g3"><g
       id="g9"
       transform="matrix(0.88703987,0,0,0.88703987,1.4449748,3.5840571)"><g
         id="g11"><path
           style="fill:#ffffff"
           id="path13"
           d="m 30.128,19.784 c -0.029,-3.223 2.639,-4.791 2.761,-4.864 -1.511,-2.203 -3.853,-2.504 -4.676,-2.528 -1.967,-0.207 -3.875,1.177 -4.877,1.177 -1.022,0 -2.565,-1.157 -4.228,-1.123 -2.14,0.033 -4.142,1.272 -5.24,3.196 -2.266,3.923 -0.576,9.688 1.595,12.858 1.086,1.553 2.355,3.287 4.016,3.227 1.625,-0.068 2.232,-1.037 4.193,-1.037 1.943,0 2.513,1.037 4.207,0.998 1.744,-0.029 2.842,-1.561 3.89,-3.127 1.255,-1.781 1.759,-3.533 1.779,-3.623 -0.041,-0.014 -3.387,-1.292 -3.42,-5.154 z"
           inkscape:connector-curvature="0" /><path
           style="fill:#ffffff"
           id="path15"
           d="m 26.928,10.306 c 0.874,-1.093 1.472,-2.58 1.306,-4.089 -1.265,0.056 -2.847,0.875 -3.758,1.944 -0.806,0.942 -1.526,2.486 -1.34,3.938 1.421,0.106 2.88,-0.717 3.792,-1.793 z"
           inkscape:connector-curvature="0" /></g></g><g
       transform="matrix(0.7005314,0,0,0.7005314,3.161164,4.9670494)"
       id="g33"><path
         style="fill:#ffffff"
         id="path35"
         d="m 47.046,19.04 c 0,0.382 -0.125,0.691 -0.375,0.928 -0.25,0.237 -0.573,0.355 -0.968,0.355 -0.355,0 -0.655,-0.122 -0.899,-0.365 -0.244,-0.243 -0.365,-0.549 -0.365,-0.918 0,-0.368 0.125,-0.671 0.375,-0.908 0.25,-0.237 0.559,-0.355 0.928,-0.355 0.368,0 0.678,0.118 0.928,0.355 0.251,0.236 0.376,0.539 0.376,0.908 z m -0.237,12.462 -2.133,0 0,-9.599 2.133,0 0,9.599 z"
         inkscape:connector-curvature="0" /><path
         style="fill:#ffffff"
         id="path37"
         d="m 58.283,19.988 -3.811,0 0,11.514 -2.133,0 0,-11.514 -3.792,0 0,-1.798 9.736,0 0,1.798 z"
         inkscape:connector-curvature="0" /><path
         style="fill:#ffffff"
         id="path39"
         d="m 67.171,31.502 -1.876,0 -0.118,-1.461 -0.04,0 c -0.672,1.119 -1.686,1.678 -3.041,1.678 -0.948,0 -1.705,-0.296 -2.271,-0.889 -0.672,-0.724 -1.008,-1.816 -1.008,-3.278 l 0,-5.648 2.134,0 0,5.293 c 0,1.844 0.632,2.765 1.896,2.765 0.948,0 1.606,-0.461 1.976,-1.382 0.092,-0.237 0.138,-0.507 0.138,-0.81 l 0,-5.866 2.133,0 0,6.833 c -0.002,0.909 0.024,1.83 0.077,2.765 z"
         inkscape:connector-curvature="0" /><path
         style="fill:#ffffff"
         id="path41"
         d="m 78.39,31.502 -2.133,0 0,-5.496 c 0,-1.695 -0.646,-2.542 -1.936,-2.542 -0.633,0 -1.146,0.233 -1.541,0.699 -0.395,0.466 -0.593,1.015 -0.593,1.646 l 0,5.693 -2.133,0 0,-6.854 c 0,-0.842 -0.026,-1.758 -0.079,-2.745 l 1.877,0 0.099,1.501 0.059,0 c 0.25,-0.467 0.619,-0.854 1.106,-1.158 0.579,-0.36 1.225,-0.54 1.936,-0.54 0.896,0 1.639,0.29 2.231,0.869 0.737,0.711 1.106,1.771 1.106,3.18 l 0,5.747 z"
         inkscape:connector-curvature="0" /><path
         style="fill:#ffffff"
         id="path43"
         d="m 89.271,26.248 c 0,0.383 -0.026,0.705 -0.079,0.969 l -6.399,0 c 0.026,0.947 0.336,1.672 0.929,2.172 0.54,0.447 1.237,0.672 2.094,0.672 0.947,0 1.81,-0.151 2.587,-0.455 l 0.336,1.482 c -0.909,0.395 -1.982,0.592 -3.22,0.592 -1.487,0 -2.656,-0.438 -3.505,-1.313 -0.85,-0.876 -1.274,-2.05 -1.274,-3.525 0,-1.448 0.396,-2.653 1.186,-3.614 0.829,-1.027 1.948,-1.541 3.357,-1.541 1.382,0 2.429,0.513 3.14,1.541 0.565,0.815 0.848,1.823 0.848,3.02 z m -2.034,-0.553 c 0.013,-0.632 -0.126,-1.178 -0.415,-1.639 -0.369,-0.593 -0.935,-0.889 -1.698,-0.889 -0.698,0 -1.265,0.289 -1.698,0.869 -0.356,0.461 -0.566,1.014 -0.633,1.658 l 4.444,0 z"
         inkscape:connector-curvature="0" /><path
         style="fill:#ffffff"
         id="path45"
         d="m 97.508,28.744 c 0,0.893 -0.329,1.609 -0.987,2.147 -0.659,0.538 -1.567,0.808 -2.726,0.808 -1.094,0 -2.021,-0.217 -2.785,-0.651 l 0.454,-1.58 c 0.737,0.448 1.521,0.671 2.351,0.671 1.093,0 1.639,-0.4 1.639,-1.204 0,-0.355 -0.118,-0.648 -0.355,-0.879 -0.236,-0.23 -0.658,-0.458 -1.264,-0.682 -1.712,-0.632 -2.567,-1.554 -2.567,-2.765 0,-0.83 0.316,-1.521 0.948,-2.074 0.632,-0.553 1.468,-0.829 2.508,-0.829 0.948,0 1.758,0.193 2.43,0.58 L 96.7,23.819 c -0.619,-0.368 -1.271,-0.554 -1.956,-0.554 -0.447,0 -0.797,0.105 -1.046,0.316 -0.251,0.209 -0.376,0.479 -0.376,0.807 0,0.329 0.132,0.599 0.396,0.809 0.224,0.197 0.658,0.414 1.304,0.65 1.656,0.632 2.486,1.596 2.486,2.897 z"
         inkscape:connector-curvature="0" /></g></g></svg>