<?xml version="1.0" encoding="UTF-8" standalone="no"?>
<svg
   xmlns:dc="http://purl.org/dc/elements/1.1/"
   xmlns:cc="http://creativecommons.org/ns#"
   xmlns:rdf="http://www.w3.org/1999/02/22-rdf-syntax-ns#"
   xmlns:svg="http://www.w3.org/2000/svg"
   xmlns="http://www.w3.org/2000/svg"
   xmlns:sodipodi="http://sodipodi.sourceforge.net/DTD/sodipodi-0.dtd"
   xmlns:inkscape="http://www.inkscape.org/namespaces/inkscape"
   id="svg2"
   viewBox="0 0 57.999999 25.511511"
   version="1.1"
   width="58"
   height="25.511511"
   inkscape:version="0.91 r13725"
   sodipodi:docname="spotify.svg">
  <sodipodi:namedview
     pagecolor="#ffffff"
     bordercolor="#666666"
     borderopacity="1"
     objecttolerance="10"
     gridtolerance="10"
     guidetolerance="10"
     inkscape:pageopacity="0"
     inkscape:pageshadow="2"
     inkscape:window-width="1920"
     inkscape:window-height="1056"
     id="namedview6"
     showgrid="false"
     inkscape:zoom="9.8685511"
     inkscape:cx="44.165547"
     inkscape:cy="9.9662565"
     inkscape:window-x="0"
     inkscape:window-y="24"
     inkscape:window-maximized="1"
     inkscape:current-layer="svg2" />
  <metadata
     id="metadata10">
    <rdf:RDF>
      <cc:Work
         rdf:about="">
        <dc:format>image/svg+xml</dc:format>
        <dc:type
           rdf:resource="http://purl.org/dc/dcmitype/StillImage" />
        <dc:title></dc:title>
      </cc:Work>
    </rdf:RDF>
  </metadata>
  <defs
     id="defs8" />
  <path
     style="fill:#ffffff"
     id="path4"
     d="M 9.017509,7.4768148 C 4.037382,7.4768148 0,11.514089 0,16.494216 c 0,4.980342 4.037382,9.017294 9.017509,9.017294 4.980666,0 9.017617,-4.036952 9.017617,-9.017294 0,-4.979804 -4.036951,-9.0169705 -9.017725,-9.0169705 z M 13.152881,20.482496 C 12.99136,20.747391 12.644627,20.831382 12.379733,20.668783 10.262514,19.375538 7.5972,19.082646 4.458306,19.7998 4.155831,19.86871 3.854325,19.679197 3.785409,19.376614 3.716169,19.074031 3.904935,18.772525 4.208164,18.70361 c 3.435016,-0.784777 6.381484,-0.446875 8.758429,1.005738 0.264895,0.162598 0.348886,0.508253 0.186288,0.773148 z m 1.103727,-2.455337 c -0.203516,0.330796 -0.636393,0.435246 -0.966973,0.231729 -2.423894,-1.48987 -6.118743,-1.921347 -8.985743,-1.051071 -0.371822,0.11231 -0.764533,-0.09724 -0.877383,-0.468412 -0.111988,-0.371822 0.09767,-0.76378 0.468842,-0.876844 3.274895,-0.993678 7.346197,-0.512345 10.129744,1.198163 0.33058,0.203517 0.43503,0.636394 0.231513,0.966543 z m 0.09476,-2.556772 C 11.445064,13.744158 6.65004,13.585436 3.875215,14.427607 3.429632,14.562746 2.958421,14.311204 2.823389,13.865621 2.688358,13.419823 2.939685,12.948935 3.38559,12.813473 c 3.185305,-0.966973 8.480506,-0.780147 11.826577,1.206239 0.40165,0.237867 0.53302,0.755488 0.295046,1.155738 -0.236898,0.400788 -0.755919,0.532912 -1.155415,0.294937 z m 10.182292,0.330796 c -1.557063,-0.371284 -1.833803,-0.631871 -1.833803,-1.179428 0,-0.517298 0.486717,-0.86543 1.211409,-0.86543 0.702078,0 1.397696,0.264357 2.127771,0.808575 0.02153,0.01648 0.04954,0.02305 0.07645,0.01874 0.028,-0.0041 0.05169,-0.01905 0.06784,-0.04156 l 0.760226,-1.071639 c 0.03123,-0.04415 0.02261,-0.104989 -0.01938,-0.138693 -0.868983,-0.697017 -1.846724,-1.035889 -2.990293,-1.035889 -1.680897,0 -2.855695,1.008861 -2.855695,2.452321 0,1.547911 1.013277,2.096006 2.764165,2.519084 1.489226,0.343178 1.741198,0.630686 1.741198,1.144539 0,0.569631 -0.508253,0.9239 -1.326626,0.9239 -0.908826,0 -1.650747,-0.306889 -2.479888,-1.024043 -0.02046,-0.01831 -0.04845,-0.02584 -0.0743,-0.02477 -0.02799,0.0022 -0.05276,0.01507 -0.06999,0.03553 l -0.852832,1.014352 c -0.03553,0.04308 -0.03123,0.105528 0.0097,0.142139 0.964819,0.861446 2.151462,1.315859 3.432862,1.315859 1.811191,0 2.98168,-0.989586 2.98168,-2.521884 0.0032,-1.292922 -0.770994,-2.008999 -2.667252,-2.470303 z m 6.768812,-1.535527 c -0.784992,0 -1.428923,0.309259 -1.960866,0.94296 l 0,-0.713278 c 0,-0.05632 -0.04523,-0.102189 -0.10122,-0.102189 l -1.394466,0 c -0.05599,0 -0.10122,0.04588 -0.10122,0.102189 l 0,7.925411 c 0,0.056 0.04523,0.102297 0.10122,0.102297 l 1.394466,0 c 0.05599,0 0.10122,-0.0463 0.10122,-0.102297 l 0,-2.501424 c 0.531943,0.595475 1.175874,0.88729 1.960866,0.88729 1.459075,0 2.936455,-1.12311 2.936455,-3.270157 0.0022,-2.147477 -1.475227,-3.270911 -2.935377,-3.270911 z m 1.314782,3.270802 c 0,1.092852 -0.673004,1.856309 -1.637824,1.856309 -0.952974,0 -1.672282,-0.797914 -1.672282,-1.856309 0,-1.058502 0.719308,-1.856201 1.672282,-1.856201 0.948668,-1.07e-4 1.637824,0.780363 1.637824,1.856094 z m 5.406651,-3.270802 c -1.879029,0 -3.351025,1.446798 -3.351025,3.294169 0,1.827558 1.462305,3.258634 3.328412,3.258634 1.88549,0 3.361793,-1.441845 3.361793,-3.282001 0,-1.833911 -1.466612,-3.270587 -3.33918,-3.270587 z m 0,5.137879 c -0.999278,0 -1.753042,-0.803298 -1.753042,-1.867615 0,-1.069163 0.727921,-1.845003 1.730429,-1.845003 1.005739,0 1.763811,0.802976 1.763811,1.868369 0,1.068947 -0.732229,1.844249 -1.741198,1.844249 z m 7.351365,-5.010386 -1.534451,0 0,-1.568478 c 0,-0.05621 -0.04523,-0.102081 -0.10122,-0.102081 l -1.394465,0 c -0.05599,0 -0.102297,0.04588 -0.102297,0.102081 l 0,1.568478 -0.669774,0 c -0.056,0 -0.10122,0.04588 -0.10122,0.102189 l 0,1.198164 c 0,0.05621 0.04523,0.102189 0.10122,0.102189 l 0.669774,0 0,3.100667 c 0,1.252328 0.623472,1.887644 1.854263,1.887644 0.499639,0 0.914209,-0.103374 1.30509,-0.325196 0.0323,-0.01723 0.05169,-0.05169 0.05169,-0.0883 l 0,-1.141416 c 0,-0.03446 -0.01831,-0.06784 -0.04845,-0.08614 -0.03015,-0.01938 -0.06784,-0.02046 -0.09907,-0.0043 -0.268125,0.134601 -0.527636,0.197056 -0.818374,0.197056 -0.446875,0 -0.647162,-0.203517 -0.647162,-0.657929 l 0,-2.881537 1.534451,0 c 0.05599,0 0.10122,-0.04588 0.10122,-0.10219 l 0,-1.198055 c 0.0022,-0.05632 -0.04308,-0.10219 -0.100142,-0.10219 z m 5.345272,0.0062 0,-0.19264 c 0,-0.566724 0.217516,-0.819451 0.704233,-0.819451 0.290737,0 0.524405,0.05771 0.786069,0.144938 0.0323,0.01012 0.06569,0.0051 0.09153,-0.01422 0.02692,-0.01927 0.04199,-0.05018 0.04199,-0.08291 l 0,-1.174797 c 0,-0.0449 -0.028,-0.08464 -0.07215,-0.09788 -0.275662,-0.08216 -0.628856,-0.166474 -1.158645,-0.166474 -1.286785,0 -1.968404,0.725122 -1.968404,2.096221 l 0,0.295045 -0.669774,0 c -0.05599,0 -0.102297,0.04588 -0.102297,0.102081 l 0,1.204302 c 0,0.05621 0.0463,0.102189 0.102297,0.102189 l 0.669774,0 0,4.781564 c 0,0.05707 0.0463,0.102297 0.102297,0.102297 l 1.393389,0 c 0.05707,0 0.102296,-0.04523 0.102296,-0.102297 l 0,-4.781241 1.301861,0 1.994247,4.781241 c -0.226129,0.501792 -0.449028,0.601935 -0.752688,0.601935 -0.245513,0 -0.505023,-0.07322 -0.768841,-0.218592 -0.02477,-0.01292 -0.05491,-0.01507 -0.08076,-0.0076 -0.02692,0.0097 -0.04953,0.02907 -0.0603,0.05491 l -0.472719,1.036966 c -0.02261,0.04953 -0.0032,0.106604 0.04415,0.132447 0.493177,0.267049 0.937899,0.38119 1.488148,0.38119 1.029428,0 1.599059,-0.480256 2.099775,-1.770272 l 2.418509,-6.249467 c 0.01292,-0.03144 0.0086,-0.06698 -0.01077,-0.09487 -0.01831,-0.02768 -0.04953,-0.04436 -0.08291,-0.04436 l -1.451536,0 c -0.04415,0 -0.08291,0.02768 -0.09691,0.06848 l -1.487072,4.246283 -1.628132,-4.249083 c -0.01507,-0.03952 -0.05276,-0.06569 -0.09476,-0.06569 l -2.381899,0 z m -3.099052,-0.0062 -1.394465,0 c -0.05599,0 -0.102297,0.04588 -0.102297,0.102189 l 0,6.081917 c 0,0.05707 0.0463,0.102297 0.102297,0.102297 l 1.394465,0 c 0.056,0 0.102297,-0.04523 0.102297,-0.102297 l 0,-6.081486 c 0,-0.05632 -0.04523,-0.102189 -0.102297,-0.102189 z m -0.689156,-2.769441 c -0.552403,0 -1.000354,0.447091 -1.000354,0.999385 0,0.552617 0.447951,1.000246 1.000354,1.000246 0.552402,0 0.999277,-0.447629 0.999277,-1.000246 0,-0.552187 -0.447952,-0.999385 -0.999277,-0.999385 z"
     inkscape:connector-curvature="0" />
</svg>
